<?xml version="1.0" encoding="UTF-8" standalone="no"?>
<svg
   enable-background="new 0 0 1024 1024"
   viewBox="0 0 1024 1024"
   version="1.1"
   id="svg222"
   sodipodi:docname="mastodon.svg"
   inkscape:version="1.2.1 (9c6d41e4, 2022-07-14)"
   xmlns:inkscape="http://www.inkscape.org/namespaces/inkscape"
   xmlns:sodipodi="http://sodipodi.sourceforge.net/DTD/sodipodi-0.dtd"
   xmlns="http://www.w3.org/2000/svg"
   xmlns:svg="http://www.w3.org/2000/svg">
  <defs
     id="defs226" />
  <sodipodi:namedview
     id="namedview224"
     pagecolor="#ffffff"
     bordercolor="#000000"
     borderopacity="0.25"
     inkscape:showpageshadow="2"
     inkscape:pageopacity="0.0"
     inkscape:pagecheckerboard="0"
     inkscape:deskcolor="#d1d1d1"
     showgrid="false"
     inkscape:zoom="0.56141548"
     inkscape:cx="878.13753"
     inkscape:cy="455.09967"
     inkscape:window-width="1915"
     inkscape:window-height="1246"
     inkscape:window-x="466"
     inkscape:window-y="111"
     inkscape:window-maximized="0"
     inkscape:current-layer="svg222" />
  <path
     d="M 943.19331,342.68181 C 943.19331,140.15609 810.36563,80.675574 810.36563,80.675574 743.40443,49.840578 628.4574,37.068687 509.13144,35.973953 h -2.91929 c -119.32596,0.912278 -234.27298,13.866625 -301.23419,44.701621 0,0 -132.827672,59.298066 -132.827672,262.006236 0,46.34372 -0.912278,101.81022 0.547367,160.74338 4.743846,198.14678 36.308665,393.37427 219.494085,441.90746 84.47694,22.25958 156.91181,27.00342 215.48006,23.90168 106.0067,-5.83858 165.48722,-37.76831 165.48722,-37.76831 l -3.46665,-76.81381 c 0,0 -75.71907,23.90169 -160.74338,20.9824 -84.29449,-2.91929 -173.15036,-9.12278 -186.83453,-112.57511 -1.27719,-9.67014 -1.82456,-19.34029 -1.82456,-29.01044 0,0 82.65239,20.25258 187.3819,24.99642 64.04191,2.91929 124.0698,-3.83157 185.19243,-10.94733 C 809.81827,734.04906 911.81095,661.9791 924.58284,596.11263 944.83541,492.2954 943.19331,342.68181 943.19331,342.68181 Z M 786.64641,603.77577 H 689.39757 V 365.67121 c 0,-50.17528 -21.16485,-75.71907 -63.31209,-75.71907 -46.70863,0 -70.06295,30.28763 -70.06295,89.95061 V 510.3585 H 459.32107 V 379.90275 c 0,-59.84543 -23.35432,-89.95061 -70.06295,-89.95061 -42.14725,0 -63.3121,25.54379 -63.3121,75.71907 V 603.77577 H 228.69719 V 358.55545 c 0,-50.17529 12.77189,-89.95061 38.49813,-119.50842 26.45606,-29.55781 61.12263,-44.51917 103.99969,-44.51917 49.81038,0 87.39623,19.15784 112.39265,57.29106 l 24.08414,40.50514 24.26659,-40.50514 c 24.99642,-38.31567 62.58227,-57.29106 112.39265,-57.29106 42.87707,0 77.54363,15.14382 103.99969,44.51917 25.54378,29.37535 38.31568,69.33313 38.31568,119.50842 z"
     fill="#ffffff"
     id="path220"
     style="display:inline;fill:#4169e1;fill-opacity:1;stroke-width:1.82456" />
</svg>
